<?xml version="1.0" encoding="UTF-8"?>
<svg xmlns="http://www.w3.org/2000/svg" viewBox="0 0 128 128">
  <path fill="#2d7dd2" d="M64 8l10 2 4 14a42 42 0 0 1 10 4l13-6 8 8 4 8-6 13a42 42 0 0 1 4 10l14 4 2 10-2 10-14 4a42 42 0 0 1-4 10l6 13-4 8-8 8-13-6a42 42 0 0 1-10 4l-4 14-10 2-10-2-4-14a42 42 0 0 1-10-4l-13 6-8-8-4-8 6-13a42 42 0 0 1-4-10l-14-4-2-10 2-10 14-4a42 42 0 0 1 4-10l-6-13 4-8 8-8 13 6a42 42 0 0 1 10-4l4-14z"/>
  <circle cx="64" cy="64" r="30" fill="#58a6ff"/>
  <circle cx="64" cy="64" r="16" fill="#ffffff"/>
</svg>
